<?xml version="1.0" encoding="iso-8859-1"?>
<!-- https://www.svgrepo.com/svg/294690/trash -->
<svg xmlns="http://www.w3.org/2000/svg" width="512" height="512"
	 viewBox="0 0 512 512">
<path d="M490.667,85.333h-42.665H448h-68.675l-7.012-28.062C363.905,23.609,333.658,0,298.965,0h-85.931
	c-34.693,0-64.94,23.609-73.348,57.273l-7.012,28.06H64.002c0,0-0.001,0-0.001,0c0,0,0,0-0.001,0H21.333
	C9.551,85.333,0,94.885,0,106.667C0,118.449,9.551,128,21.333,128h22.488l17.974,323.53C63.683,485.452,91.744,512,125.719,512
	h260.565c33.975,0,62.036-26.548,63.924-60.468L468.183,128h22.484c11.782,0,21.333-9.551,21.333-21.333
	C512,94.885,502.449,85.333,490.667,85.333z M181.081,67.614c3.663-14.664,16.838-24.948,31.954-24.948h85.931
	c15.116,0,28.291,10.284,31.953,24.946l4.428,17.721H176.653L181.081,67.614z M407.608,449.163
	c-0.63,11.311-9.993,20.17-21.324,20.17H125.719c-11.33,0-20.694-8.859-21.324-20.172L86.554,128h62.78h213.333h62.784
	L407.608,449.163z"/>
<path d="M170.667,170.667c-11.782,0-21.333,9.551-21.333,21.333v213.333c0,11.782,9.551,21.333,21.333,21.333
	c11.782,0,21.333-9.551,21.333-21.333V192C192,180.218,182.449,170.667,170.667,170.667z"/>
<path d="M256,170.667c-11.782,0-21.333,9.551-21.333,21.333v213.333c0,11.782,9.551,21.333,21.333,21.333
	s21.333-9.551,21.333-21.333V192C277.333,180.218,267.782,170.667,256,170.667z"/>
<path d="M341.333,170.667C329.551,170.667,320,180.218,320,192v213.333c0,11.782,9.551,21.333,21.333,21.333
	c11.782,0,21.333-9.551,21.333-21.333V192C362.667,180.218,353.115,170.667,341.333,170.667z"/>
</svg>
